mtllib scene13_box.mtl

o scene13_textured_cornell_box

v -1.0000 0.0000 1.0000
v 1.0000 0.0000 1.0000
v 1.0000 0.0000 -1.0500
v -1.0000 0.0000 -1.0500
v -1.0000 1.6000 1.0000
v 1.0000 1.6000 1.0000
v 1.0000 1.6000 -1.0500
v -1.0000 1.6000 -1.0500
v -0.4200 1.5950 -0.6200
v 0.4200 1.5950 -0.6200
v 0.4200 1.5950 0.1000
v -0.4200 1.5950 0.1000

vt 0.0 0.0
vt 4.0 0.0
vt 4.0 4.0
vt 0.0 4.0
vt 0.0 0.0
vt 3.0 0.0
vt 3.0 2.5
vt 0.0 2.5
vt 0.0 0.0
vt 3.5 0.0
vt 3.5 2.6
vt 0.0 2.6
vt 0.0 0.0
vt 3.5 0.0
vt 3.5 2.6
vt 0.0 2.6
vt 0.0 0.0
vt 2.5 0.0
vt 2.5 2.2
vt 0.0 2.2
vt 0.0 0.0
vt 1.0 0.0
vt 1.0 1.0
vt 0.0 1.0

vn 0.0 1.0 0.0
vn 0.0 -1.0 0.0
vn 0.0 0.0 1.0
vn -1.0 0.0 0.0
vn 1.0 0.0 0.0

g floor
usemtl floor_wood
f 1/1/1 2/2/1 3/3/1
f 1/1/1 3/3/1 4/4/1

g ceiling
usemtl ceiling_marble
f 5/17/2 7/19/2 6/18/2
f 5/17/2 8/20/2 7/19/2

g back_wall
usemtl back_tiles
f 4/5/3 3/6/3 7/7/3
f 4/5/3 7/7/3 8/8/3

g right_wall
usemtl right_green_wall
f 2/9/4 7/11/4 3/10/4
f 2/9/4 6/12/4 7/11/4

g left_wall
usemtl left_red_wall
f 1/13/5 4/14/5 8/15/5
f 1/13/5 8/15/5 5/16/5

g ceiling_light
usemtl warm_area_light
f 9/21/2 10/22/2 11/23/2
f 9/21/2 11/23/2 12/24/2
